<?xml version="1.0" encoding="UTF-8" standalone="no"?>
<!-- Generator: Adobe Illustrator 26.2.1, SVG Export Plug-In . SVG Version: 6.00 Build 0)  -->

<svg
   version="1.1"
   id="Layer_1"
   x="0px"
   y="0px"
   viewBox="0 0 500 141"
   style="enable-background:new 0 0 500 141;"
   xml:space="preserve"
   sodipodi:docname="ceno_logo.svg"
   inkscape:version="1.1.1 (3bf5ae0d25, 2021-09-20)"
   xmlns:inkscape="http://www.inkscape.org/namespaces/inkscape"
   xmlns:sodipodi="http://sodipodi.sourceforge.net/DTD/sodipodi-0.dtd"
   xmlns="http://www.w3.org/2000/svg"
   xmlns:svg="http://www.w3.org/2000/svg"><defs
   id="defs23" /><sodipodi:namedview
   id="namedview21"
   pagecolor="#ffffff"
   bordercolor="#666666"
   borderopacity="1.0"
   inkscape:pageshadow="2"
   inkscape:pageopacity="1"
   inkscape:pagecheckerboard="0"
   showgrid="false"
   inkscape:zoom="2.858"
   inkscape:cx="249.82505"
   inkscape:cy="70.328901"
   inkscape:current-layer="Layer_1" />
<style
   type="text/css"
   id="style2">
	.st0{fill:#0369A1;}
	.st1{fill-rule:evenodd;clip-rule:evenodd;fill:#0EA5E9;}
</style>
<path
   class="st0"
   d="M219.2,54.7c-2.2-2.3-4.5-4.2-6.9-5.5c-2.4-1.4-4.8-2.1-7.3-2.1c-3.4,0-6.5,0.6-9.2,1.9c-2.7,1.3-5,2.9-7,5.1  c-1.9,2.1-3.3,4.5-4.4,7.3c-0.9,2.7-1.4,5.6-1.4,8.5s0.5,5.8,1.4,8.5c1,2.7,2.5,5.2,4.4,7.3c2,2.1,4.3,3.8,7,5.1s5.8,1.9,9.2,1.9  c2.9,0,5.6-0.6,8.1-1.7c2.5-1.3,4.6-3.1,6.4-5.4L232,99c-1.9,1.9-4.1,3.5-6.6,4.9c-2.4,1.4-4.8,2.5-7.3,3.3  c-2.5,0.8-4.9,1.4-7.2,1.7c-2.3,0.4-4.3,0.6-5.9,0.6c-5.6,0-10.9-0.9-15.9-2.8c-5-1.9-9.3-4.6-12.9-8.1c-3.6-3.5-6.6-7.6-8.7-12.5  c-2.1-4.9-3.1-10.4-3.1-16.4c0-6,1-11.4,3.1-16.3c2.2-4.9,5.1-9.2,8.7-12.6c3.6-3.5,8-6.2,12.9-8.1c5-1.9,10.3-2.8,15.9-2.8  c4.8,0,9.6,0.9,14.3,2.8c4.9,1.8,9.1,4.7,12.8,8.7L219.2,54.7z"
   id="path4" />
<path
   class="st0"
   d="M258.2,76.4c0.6,5.7,2.8,10.1,6.6,13.3c3.7,3.2,8.3,4.7,13.6,4.7c4.7,0,8.6-0.9,11.7-2.8c3.2-2,6-4.5,8.4-7.4  l13.4,10.3c-4.4,5.5-9.3,9.4-14.7,11.7c-5.4,2.3-11.1,3.5-17,3.5c-5.6,0-10.9-0.9-15.9-2.8c-5-1.9-9.3-4.6-12.9-8.1  c-3.6-3.5-6.6-7.6-8.7-12.5c-2.1-4.9-3.1-10.4-3.1-16.4c0-6,1-11.4,3.1-16.3c2.2-4.9,5.1-9.2,8.7-12.6c3.6-3.5,8-6.2,12.9-8.1  c5-1.9,10.3-2.8,15.9-2.8c5.2,0,9.9,0.9,14.2,2.8c4.4,1.8,8.1,4.4,11.1,7.9c3.1,3.5,5.5,7.8,7.2,12.9c1.8,5.1,2.7,10.9,2.7,17.5v5.2  H258.2z M296.6,62.2c-0.1-5.6-1.8-9.9-5.1-13.1c-3.3-3.3-8-4.9-13.9-4.9c-5.6,0-10.1,1.6-13.4,4.9c-3.2,3.3-5.2,7.6-5.9,13.1H296.6z  "
   id="path6" />
<g
   id="g14">
	<path
   class="st1"
   d="M125.2,36.5c-2.9-5.1-6.5-9.9-10.8-14.3c-26.2-26.5-68.6-26.5-94.7,0c-26.2,26.5-26.2,69.4,0,95.9   c26.2,26.5,68.6,26.5,94.7,0c4.3-4.4,7.9-9.2,10.8-14.3H97.9c-17.8,16.8-45.7,16.4-63.1-1.1c-17.7-17.9-17.7-47.1,0-65   c17.4-17.6,45.3-17.9,63.1-1.1H125.2z"
   id="path8" />
	<path
   class="st1"
   d="M79.4,74.6v18l50.8,0c0.6-1.6,1.1-3.3,1.5-5c1.2-4.4,1.9-8.7,2.1-13L79.4,74.6z"
   id="path10" />
	<path
   class="st1"
   d="M133.8,65.6c-0.4-6.2-1.7-12.3-3.7-18l-50.8,0v18L133.8,65.6z"
   id="path12" />
</g>
<path
   class="st0"
   d="M332.8,31.9h17.8v12.2h0.3c1.8-3.8,4.5-7.1,8.1-9.8c3.6-2.8,8.6-4.3,14.8-4.3c5,0,9.2,0.8,12.6,2.5  c3.5,1.7,6.4,3.9,8.6,6.6c2.2,2.7,3.7,5.9,4.7,9.5c0.9,3.6,1.4,7.3,1.4,11.2v47.8h-18.7V69.3c0-2.1-0.1-4.4-0.3-6.9  c-0.2-2.6-0.8-5.1-1.7-7.3c-0.8-2.3-2.2-4.2-4.1-5.7c-1.9-1.6-4.4-2.4-7.6-2.4c-3.1,0-5.8,0.5-8,1.6c-2.1,1.1-3.8,2.5-5.3,4.3  c-1.4,1.8-2.3,3.8-3,6.2c-0.6,2.3-0.9,4.7-0.9,7.3v41.4h-18.7V31.9z"
   id="path16" />
<path
   class="st0"
   d="M418.6,69.8c0-6,1-11.4,3.1-16.3c2.2-4.9,5.1-9.2,8.7-12.6c3.6-3.5,8-6.2,12.9-8.1c5-1.9,10.3-2.8,15.9-2.8  c5.6,0,10.9,0.9,15.9,2.8c5,1.9,9.3,4.6,12.9,8.1c3.6,3.5,6.5,7.7,8.6,12.6c2.2,4.8,3.3,10.3,3.3,16.3c0,6-1.1,11.5-3.3,16.4  c-2.1,4.8-4.9,9-8.6,12.5c-3.6,3.5-8,6.2-12.9,8.1c-5,1.9-10.3,2.8-15.9,2.8c-5.6,0-10.9-0.9-15.9-2.8c-5-1.9-9.3-4.6-12.9-8.1  c-3.6-3.5-6.5-7.6-8.7-12.5C419.6,81.3,418.6,75.8,418.6,69.8z M437.3,69.8c0,2.9,0.5,5.8,1.4,8.5c1,2.7,2.5,5.2,4.4,7.3  c2,2.1,4.3,3.8,7,5.1s5.8,1.9,9.2,1.9s6.5-0.6,9.2-1.9s5-2.9,6.9-5.1c2-2.1,3.4-4.5,4.4-7.3c1-2.7,1.6-5.6,1.6-8.5s-0.5-5.8-1.6-8.5  c-0.9-2.7-2.4-5.2-4.4-7.3c-1.9-2.1-4.2-3.8-6.9-5.1c-2.7-1.3-5.8-1.9-9.2-1.9s-6.5,0.6-9.2,1.9c-2.7,1.3-5,2.9-7,5.1  c-1.9,2.1-3.3,4.5-4.4,7.3C437.8,64,437.3,66.9,437.3,69.8z"
   id="path18" />
</svg>
